<svg xmlns="http://www.w3.org/2000/svg" viewBox="0 0 1600 4350" font-family="'SF Mono','Menlo','Monaco',monospace" font-size="11">
  <defs>
    <linearGradient id="bgGrad" x1="0%" y1="0%" x2="0%" y2="100%">
      <stop offset="0%" style="stop-color:#0a0e17;stop-opacity:1"/>
      <stop offset="100%" style="stop-color:#111827;stop-opacity:1"/>
    </linearGradient>
    <linearGradient id="hotGrad" x1="0%" y1="0%" x2="100%" y2="100%">
      <stop offset="0%" style="stop-color:#dc2626;stop-opacity:0.15"/>
      <stop offset="100%" style="stop-color:#f97316;stop-opacity:0.08"/>
    </linearGradient>
    <linearGradient id="warmGrad" x1="0%" y1="0%" x2="100%" y2="100%">
      <stop offset="0%" style="stop-color:#f59e0b;stop-opacity:0.12"/>
      <stop offset="100%" style="stop-color:#eab308;stop-opacity:0.06"/>
    </linearGradient>
    <linearGradient id="coldGrad" x1="0%" y1="0%" x2="100%" y2="100%">
      <stop offset="0%" style="stop-color:#3b82f6;stop-opacity:0.12"/>
      <stop offset="100%" style="stop-color:#06b6d4;stop-opacity:0.06"/>
    </linearGradient>
    <linearGradient id="fixedGrad" x1="0%" y1="0%" x2="100%" y2="100%">
      <stop offset="0%" style="stop-color:#22c55e;stop-opacity:0.12"/>
      <stop offset="100%" style="stop-color:#10b981;stop-opacity:0.06"/>
    </linearGradient>
    <filter id="greenGlow">
      <feGaussianBlur stdDeviation="3" result="blur"/>
      <feFlood flood-color="#22c55e" flood-opacity="0.4" result="color"/>
      <feComposite in="color" in2="blur" operator="in" result="shadow"/>
      <feMerge><feMergeNode in="shadow"/><feMergeNode in="SourceGraphic"/></feMerge>
    </filter>
    <marker id="arrow" markerWidth="8" markerHeight="6" refX="8" refY="3" orient="auto">
      <path d="M0,0 L8,3 L0,6" fill="#4b5563" stroke="none"/>
    </marker>
    <marker id="arrowAmber" markerWidth="8" markerHeight="6" refX="8" refY="3" orient="auto">
      <path d="M0,0 L8,3 L0,6" fill="#f59e0b" stroke="none"/>
    </marker>
    <marker id="arrowRed" markerWidth="8" markerHeight="6" refX="8" refY="3" orient="auto">
      <path d="M0,0 L8,3 L0,6" fill="#ef4444" stroke="none"/>
    </marker>
    <marker id="arrowGreen" markerWidth="8" markerHeight="6" refX="8" refY="3" orient="auto">
      <path d="M0,0 L8,3 L0,6" fill="#22c55e" stroke="none"/>
    </marker>
    <marker id="arrowCyan" markerWidth="8" markerHeight="6" refX="8" refY="3" orient="auto">
      <path d="M0,0 L8,3 L0,6" fill="#06b6d4" stroke="none"/>
    </marker>
    <linearGradient id="criticalGrad" x1="0%" y1="0%" x2="100%" y2="0%">
      <stop offset="0%" style="stop-color:#ef4444;stop-opacity:0.25"/>
      <stop offset="100%" style="stop-color:#ef4444;stop-opacity:0.05"/>
    </linearGradient>
    <linearGradient id="kaizenGrad" x1="0%" y1="0%" x2="100%" y2="0%">
      <stop offset="0%" style="stop-color:#06b6d4;stop-opacity:0.2"/>
      <stop offset="100%" style="stop-color:#06b6d4;stop-opacity:0.05"/>
    </linearGradient>
    <filter id="criticalGlow">
      <feGaussianBlur stdDeviation="4" result="blur"/>
      <feFlood flood-color="#ef4444" flood-opacity="0.5" result="color"/>
      <feComposite in="color" in2="blur" operator="in" result="shadow"/>
      <feMerge><feMergeNode in="shadow"/><feMergeNode in="SourceGraphic"/></feMerge>
    </filter>
  </defs>

  <rect width="1600" height="4350" fill="url(#bgGrad)"/>

  <!-- Title -->
  <text x="800" y="40" text-anchor="middle" fill="#f8fafc" font-size="22" font-weight="bold">yata — Rust Cypher Graph Engine Architecture</text>
  <text x="800" y="62" text-anchor="middle" fill="#94a3b8" font-size="13">12 crates | 854 tests | CSR + ArrowFragment + R2 | Critical Path + Full-Stack Shannon + Kaizen</text>

  <!-- ==================== LAYER 0 ==================== -->
  <text x="40" y="105" fill="#64748b" font-size="10" font-weight="bold">LAYER 0 — Zero Dependencies (Foundation)</text>
  <line x1="40" y1="110" x2="1560" y2="110" stroke="#1e293b" stroke-width="1"/>

  <rect x="60" y="125" width="340" height="110" rx="8" fill="#1e293b" stroke="#334155" stroke-width="1.5"/>
  <text x="80" y="148" fill="#e2e8f0" font-size="13" font-weight="bold">yata-core</text>
  <text x="280" y="148" fill="#64748b" font-size="9">~10,130 LOC</text>
  <text x="80" y="167" fill="#94a3b8" font-size="10">GlobalVid(u64) = [16b partition][48b local]</text>
  <text x="80" y="182" fill="#94a3b8" font-size="10">Blake3Hash, PayloadRef(Arrow|JSON|CBOR)</text>
  <text x="80" y="197" fill="#94a3b8" font-size="10">ObjectStorage, AppendLog, WrpcBroker traits</text>
  <text x="80" y="212" fill="#94a3b8" font-size="10">YataError, ObjectManifest, ChunkRef</text>
  <text x="80" y="227" fill="#475569" font-size="9">deps: blake3, uuid, serde, async-trait</text>

  <rect x="440" y="125" width="340" height="110" rx="8" fill="#1e293b" stroke="#334155" stroke-width="1.5"/>
  <text x="460" y="148" fill="#e2e8f0" font-size="13" font-weight="bold">yata-grin</text>
  <text x="660" y="148" fill="#64748b" font-size="9">~314 LOC</text>
  <text x="460" y="167" fill="#94a3b8" font-size="10">GRIN Traits (Storage-Agnostic Abstraction)</text>
  <text x="460" y="182" fill="#94a3b8" font-size="10">Topology | Property | Schema | Scannable</text>
  <text x="460" y="197" fill="#94a3b8" font-size="10">Mutable | Tiered | Versioned | Partitioned</text>
  <text x="460" y="212" fill="#94a3b8" font-size="10">PropValue, Direction, Predicate, Neighbor</text>
  <text x="460" y="227" fill="#475569" font-size="9">deps: serde (only)</text>

  <!-- ==================== LAYER 1 ==================== -->
  <text x="40" y="270" fill="#64748b" font-size="10" font-weight="bold">LAYER 1 — Core Primitives</text>
  <line x1="40" y1="275" x2="1560" y2="275" stroke="#1e293b" stroke-width="1"/>

  <rect x="60" y="290" width="300" height="100" rx="8" fill="#1e293b" stroke="#334155" stroke-width="1.5"/>
  <text x="80" y="313" fill="#e2e8f0" font-size="13" font-weight="bold">yata-arrow</text>
  <text x="250" y="313" fill="#64748b" font-size="9">~640 LOC</text>
  <text x="80" y="332" fill="#94a3b8" font-size="10">ArrowBatchHandle, SchemaRegistry</text>
  <text x="80" y="347" fill="#94a3b8" font-size="10">IPC serialize/deserialize, mmap read</text>
  <text x="80" y="362" fill="#94a3b8" font-size="10">Schema compatibility (Backward/Full)</text>
  <text x="80" y="377" fill="#475569" font-size="9">deps: arrow v53, memmap2, once_cell</text>

  <rect x="400" y="290" width="300" height="100" rx="8" fill="#1e293b" stroke="#334155" stroke-width="1.5"/>
  <text x="420" y="313" fill="#e2e8f0" font-size="13" font-weight="bold">yata-object</text>
  <text x="590" y="313" fill="#64748b" font-size="9">~800 LOC</text>
  <text x="420" y="332" fill="#94a3b8" font-size="10">LocalObjectStore (CAS + MDAG)</text>
  <text x="420" y="347" fill="#94a3b8" font-size="10">chunk_size=128MB, inline=256KB</text>
  <text x="420" y="362" fill="#94a3b8" font-size="10">Blake3 hash directory layout</text>
  <text x="420" y="377" fill="#475569" font-size="9">deps: core, async-trait, ciborium</text>

  <!-- yata-vineyard (CHANGED) -->
  <rect x="740" y="290" width="340" height="100" rx="8" fill="#1e293b" stroke="#22c55e" stroke-width="2"/>
  <text x="760" y="313" fill="#22c55e" font-size="13" font-weight="bold">yata-vineyard</text>
  <text x="960" y="313" fill="#64748b" font-size="9">~1,500 LOC</text>
  <text x="760" y="332" fill="#94a3b8" font-size="10">ArrowFragment (canonical snapshot format)</text>
  <text x="760" y="347" fill="#94a3b8" font-size="10">NbrUnit64 (packed CSR, 25x faster)</text>
  <text x="760" y="362" fill="#4ade80" font-size="10">csr_to_fragment_selective() [NEW]</text>
  <text x="760" y="377" fill="#475569" font-size="9">deps: core, grin, arrow, bytes</text>

  <!-- Layer 0->1 arrows -->
  <line x1="230" y1="235" x2="210" y2="288" stroke="#334155" stroke-width="1" marker-end="url(#arrow)"/>
  <line x1="230" y1="235" x2="550" y2="288" stroke="#334155" stroke-width="1" marker-end="url(#arrow)"/>
  <line x1="610" y1="235" x2="910" y2="288" stroke="#334155" stroke-width="1" marker-end="url(#arrow)"/>
  <line x1="230" y1="235" x2="910" y2="288" stroke="#334155" stroke-width="1" stroke-dasharray="4,3" marker-end="url(#arrow)"/>

  <!-- ==================== LAYER 2 ==================== -->
  <text x="40" y="425" fill="#64748b" font-size="10" font-weight="bold">LAYER 2 — Graph Storage</text>
  <line x1="40" y1="430" x2="1560" y2="430" stroke="#1e293b" stroke-width="1"/>

  <rect x="60" y="445" width="300" height="100" rx="8" fill="#1e293b" stroke="#334155" stroke-width="1.5"/>
  <text x="80" y="468" fill="#e2e8f0" font-size="13" font-weight="bold">yata-cypher</text>
  <text x="250" y="468" fill="#64748b" font-size="9">~500 LOC</text>
  <text x="80" y="487" fill="#94a3b8" font-size="10">Full Cypher parser (regex lexing)</text>
  <text x="80" y="502" fill="#94a3b8" font-size="10">CSR-based executor</text>
  <text x="80" y="517" fill="#94a3b8" font-size="10">Graph trait, Value, NodeRef, RelRef</text>
  <text x="80" y="532" fill="#475569" font-size="9">deps: serde_json, indexmap, regex</text>

  <rect x="400" y="445" width="340" height="100" rx="8" fill="#1e293b" stroke="#334155" stroke-width="1.5"/>
  <text x="420" y="468" fill="#e2e8f0" font-size="13" font-weight="bold">yata-store</text>
  <text x="620" y="468" fill="#64748b" font-size="9">~2,000 LOC</text>
  <text x="420" y="487" fill="#94a3b8" font-size="10">MutableCsrStore (in-memory, GRIN impl)</text>
  <text x="420" y="502" fill="#94a3b8" font-size="10">DiskVineyard/MmapVineyard (LRU cache)</text>
  <text x="420" y="517" fill="#94a3b8" font-size="10">GraphStoreEnum dispatch, PartitionedStore</text>
  <text x="420" y="532" fill="#475569" font-size="9">deps: grin, cypher, vineyard, core, memmap2</text>

  <rect x="780" y="445" width="300" height="100" rx="8" fill="#1e293b" stroke="#334155" stroke-width="1.5"/>
  <text x="800" y="468" fill="#e2e8f0" font-size="13" font-weight="bold">yata-graph</text>
  <text x="960" y="468" fill="#64748b" font-size="9">~800 LOC</text>
  <text x="800" y="487" fill="#94a3b8" font-size="10">GraphStore (in-memory + vector idx)</text>
  <text x="800" y="502" fill="#94a3b8" font-size="10">LRU QueryCache, coordinator</text>
  <text x="800" y="517" fill="#94a3b8" font-size="10">Pipeline, per-label operations</text>
  <text x="800" y="532" fill="#475569" font-size="9">deps: cypher, vex, arrow, tokio</text>

  <line x1="210" y1="390" x2="210" y2="443" stroke="#334155" stroke-width="1" marker-end="url(#arrow)"/>
  <line x1="550" y1="390" x2="570" y2="443" stroke="#334155" stroke-width="1" marker-end="url(#arrow)"/>
  <line x1="910" y1="390" x2="570" y2="443" stroke="#334155" stroke-width="1" marker-end="url(#arrow)"/>

  <!-- ==================== LAYER 3 ==================== -->
  <text x="40" y="580" fill="#64748b" font-size="10" font-weight="bold">LAYER 3 — Graph Engine</text>
  <line x1="40" y1="585" x2="1560" y2="585" stroke="#1e293b" stroke-width="1"/>

  <rect x="60" y="600" width="320" height="110" rx="8" fill="#1e293b" stroke="#334155" stroke-width="1.5"/>
  <text x="80" y="623" fill="#e2e8f0" font-size="13" font-weight="bold">yata-gie</text>
  <text x="250" y="623" fill="#64748b" font-size="9">~1,500 LOC</text>
  <text x="80" y="642" fill="#94a3b8" font-size="10">GIE Push-Based Executor</text>
  <text x="80" y="657" fill="#94a3b8" font-size="10">LogicalOp IR (Scan/Filter/Project/Agg)</text>
  <text x="80" y="672" fill="#94a3b8" font-size="10">SecurityScope predicate pushdown</text>
  <text x="80" y="687" fill="#94a3b8" font-size="10">Distributed planner + Exchange ops</text>
  <text x="80" y="702" fill="#475569" font-size="9">deps: grin, store, cypher, serde_json</text>

  <!-- yata-engine (CHANGED) -->
  <rect x="420" y="600" width="400" height="110" rx="8" fill="#1e293b" stroke="#22c55e" stroke-width="2.5"/>
  <text x="440" y="623" fill="#22c55e" font-size="13" font-weight="bold">yata-engine (MAIN)</text>
  <text x="680" y="623" fill="#64748b" font-size="9">~3,000 LOC</text>
  <text x="440" y="642" fill="#94a3b8" font-size="10">TieredGraphEngine (HOT/Warm/Cold)</text>
  <text x="440" y="657" fill="#94a3b8" font-size="10">RwLock&lt;GraphStoreEnum&gt;, QueryCache</text>
  <text x="440" y="672" fill="#4ade80" font-size="10">Dirty label delta snapshot [FIXED]</text>
  <text x="440" y="687" fill="#4ade80" font-size="10">is_dirty_vertex_blob / is_infra_blob [NEW]</text>
  <text x="440" y="702" fill="#475569" font-size="9">deps: core,grin,store,cypher,gie,graph,s3,vineyard</text>

  <rect x="860" y="600" width="300" height="55" rx="8" fill="#1e293b" stroke="#334155" stroke-width="1.5"/>
  <text x="880" y="623" fill="#e2e8f0" font-size="13" font-weight="bold">yata-vex</text>
  <text x="1040" y="623" fill="#64748b" font-size="9">~1,500 LOC</text>
  <text x="880" y="642" fill="#94a3b8" font-size="10">IVF_PQ + DiskANN (Vamana) vector index</text>

  <rect x="860" y="665" width="300" height="55" rx="8" fill="#1e293b" stroke="#334155" stroke-width="1.5"/>
  <text x="880" y="688" fill="#e2e8f0" font-size="13" font-weight="bold">yata-s3</text>
  <text x="1020" y="688" fill="#64748b" font-size="9">~500 LOC</text>
  <text x="880" y="703" fill="#94a3b8" font-size="10">R2 sync (ureq + rustls + SigV4)</text>

  <line x1="210" y1="545" x2="220" y2="598" stroke="#334155" stroke-width="1" marker-end="url(#arrow)"/>
  <line x1="570" y1="545" x2="620" y2="598" stroke="#334155" stroke-width="1" marker-end="url(#arrow)"/>
  <line x1="930" y1="545" x2="620" y2="598" stroke="#334155" stroke-width="1" marker-end="url(#arrow)"/>
  <line x1="930" y1="545" x2="1010" y2="598" stroke="#334155" stroke-width="1" marker-end="url(#arrow)"/>

  <!-- ==================== LAYER 4 ==================== -->
  <text x="40" y="745" fill="#64748b" font-size="10" font-weight="bold">LAYER 4 — Protocol</text>
  <line x1="40" y1="750" x2="1560" y2="750" stroke="#1e293b" stroke-width="1"/>

  <rect x="200" y="765" width="400" height="90" rx="8" fill="#1e293b" stroke="#60a5fa" stroke-width="2"/>
  <text x="220" y="788" fill="#60a5fa" font-size="13" font-weight="bold">yata-server (ENTRY)</text>
  <text x="470" y="788" fill="#64748b" font-size="9">~1,000+ LOC</text>
  <text x="220" y="807" fill="#94a3b8" font-size="10">/xrpc/ai.gftd.yata.cypher (unified R/W)</text>
  <text x="220" y="822" fill="#94a3b8" font-size="10">Broker (engine + objects + CAS), Prometheus</text>
  <text x="220" y="842" fill="#475569" font-size="9">deps: engine, graph, s3, object, axum, tokio, metrics</text>

  <rect x="640" y="765" width="240" height="55" rx="8" fill="#1e293b" stroke="#334155" stroke-width="1.5"/>
  <text x="660" y="788" fill="#e2e8f0" font-size="13" font-weight="bold">yata-client</text>
  <text x="800" y="788" fill="#64748b" font-size="9">~100 LOC</text>
  <text x="660" y="807" fill="#94a3b8" font-size="10">Async client API (KV/Log/Lance)</text>

  <line x1="620" y1="710" x2="400" y2="763" stroke="#334155" stroke-width="1.5" marker-end="url(#arrow)"/>
  <line x1="620" y1="710" x2="760" y2="763" stroke="#334155" stroke-width="1" marker-end="url(#arrow)"/>

  <!-- ==================== LAYER 5 ==================== -->
  <text x="40" y="890" fill="#64748b" font-size="10" font-weight="bold">LAYER 5 — Dev / Bench</text>
  <line x1="40" y1="895" x2="1560" y2="895" stroke="#1e293b" stroke-width="1"/>

  <rect x="200" y="910" width="400" height="45" rx="8" fill="#1e293b" stroke="#334155" stroke-width="1.5"/>
  <text x="220" y="938" fill="#e2e8f0" font-size="13" font-weight="bold">yata-bench</text>
  <text x="400" y="938" fill="#64748b" font-size="9">~1,000 LOC — Benchmarks, trillion-scale projection</text>
  <line x1="400" y1="855" x2="400" y2="908" stroke="#334155" stroke-width="1" marker-end="url(#arrow)"/>

  <!-- ======================================================== -->
  <!-- TIERED STORAGE -->
  <!-- ======================================================== -->
  <text x="800" y="1000" text-anchor="middle" fill="#f8fafc" font-size="18" font-weight="bold">Tiered Storage Data Flow</text>
  <line x1="40" y1="1010" x2="1560" y2="1010" stroke="#334155" stroke-width="1"/>

  <!-- HOT -->
  <rect x="60" y="1025" width="460" height="165" rx="10" fill="url(#hotGrad)" stroke="#dc2626" stroke-width="1.5" stroke-opacity="0.5"/>
  <text x="80" y="1050" fill="#fca5a5" font-size="14" font-weight="bold">HOT (CSR In-Memory)</text>
  <text x="360" y="1050" fill="#dc2626" font-size="11">&lt;1us query</text>
  <rect x="80" y="1065" width="200" height="45" rx="6" fill="#1e293b" stroke="#dc2626" stroke-width="1" stroke-opacity="0.4"/>
  <text x="95" y="1085" fill="#e2e8f0" font-size="11">MutableCsrStore</text>
  <text x="95" y="1100" fill="#94a3b8" font-size="9">RwLock&lt;GraphStoreEnum&gt;</text>
  <rect x="300" y="1065" width="200" height="45" rx="6" fill="#1e293b" stroke="#dc2626" stroke-width="1" stroke-opacity="0.4"/>
  <text x="315" y="1085" fill="#e2e8f0" font-size="11">QueryCache (LRU+TTL)</text>
  <text x="315" y="1100" fill="#94a3b8" font-size="9">256 entries, 30s, bounded</text>
  <rect x="80" y="1120" width="200" height="45" rx="6" fill="#1e293b" stroke="#dc2626" stroke-width="1" stroke-opacity="0.4"/>
  <text x="95" y="1140" fill="#e2e8f0" font-size="11">GIE Push Executor</text>
  <text x="95" y="1155" fill="#94a3b8" font-size="9">Cypher -> IR -> push records</text>
  <rect x="300" y="1120" width="200" height="45" rx="6" fill="#1e293b" stroke="#dc2626" stroke-width="1" stroke-opacity="0.4"/>
  <text x="315" y="1140" fill="#e2e8f0" font-size="11">SecurityFilter (RLS)</text>
  <text x="315" y="1155" fill="#94a3b8" font-size="9">org_id, clearance, consent</text>

  <!-- WARM -->
  <rect x="570" y="1025" width="340" height="165" rx="10" fill="url(#warmGrad)" stroke="#f59e0b" stroke-width="1.5" stroke-opacity="0.5"/>
  <text x="590" y="1050" fill="#fcd34d" font-size="14" font-weight="bold">WARM (Disk Cache)</text>
  <text x="810" y="1050" fill="#f59e0b" font-size="11">~100us</text>
  <rect x="590" y="1065" width="140" height="45" rx="6" fill="#1e293b" stroke="#f59e0b" stroke-width="1" stroke-opacity="0.4"/>
  <text x="605" y="1085" fill="#e2e8f0" font-size="11">DiskVineyard</text>
  <text x="605" y="1100" fill="#94a3b8" font-size="9">LRU evict cache</text>
  <rect x="750" y="1065" width="140" height="45" rx="6" fill="#1e293b" stroke="#f59e0b" stroke-width="1" stroke-opacity="0.4"/>
  <text x="765" y="1085" fill="#e2e8f0" font-size="11">MmapVineyard</text>
  <text x="765" y="1100" fill="#94a3b8" font-size="9">zero-copy mmap</text>
  <rect x="590" y="1120" width="300" height="45" rx="6" fill="#1e293b" stroke="#f59e0b" stroke-width="1" stroke-opacity="0.4"/>
  <text x="605" y="1140" fill="#e2e8f0" font-size="11">ArrowFragment blobs (per-label IPC)</text>
  <text x="605" y="1155" fill="#94a3b8" font-size="9">8GB ephemeral, write-through from R2</text>

  <!-- COLD -->
  <rect x="960" y="1025" width="320" height="165" rx="10" fill="url(#coldGrad)" stroke="#3b82f6" stroke-width="1.5" stroke-opacity="0.5"/>
  <text x="980" y="1050" fill="#93c5fd" font-size="14" font-weight="bold">COLD (R2 Source of Truth)</text>
  <text x="1200" y="1050" fill="#3b82f6" font-size="11">~3-5ms</text>
  <rect x="980" y="1065" width="280" height="45" rx="6" fill="#1e293b" stroke="#3b82f6" stroke-width="1" stroke-opacity="0.4"/>
  <text x="995" y="1085" fill="#e2e8f0" font-size="11">snap/fragment/meta.json</text>
  <text x="995" y="1100" fill="#94a3b8" font-size="9">schema + blob manifest</text>
  <rect x="980" y="1120" width="280" height="45" rx="6" fill="#1e293b" stroke="#3b82f6" stroke-width="1" stroke-opacity="0.4"/>
  <text x="995" y="1140" fill="#e2e8f0" font-size="11">vertex_table_N / edge_table_N</text>
  <text x="995" y="1155" fill="#94a3b8" font-size="9">Arrow IPC, 32MB chunks, SigV4</text>

  <line x1="520" y1="1110" x2="568" y2="1110" stroke="#f59e0b" stroke-width="2" marker-end="url(#arrowAmber)"/>
  <text x="525" y="1103" fill="#f59e0b" font-size="8">page-in</text>
  <line x1="910" y1="1110" x2="958" y2="1110" stroke="#3b82f6" stroke-width="2" marker-end="url(#arrow)"/>
  <text x="915" y="1103" fill="#3b82f6" font-size="8">fetch</text>

  <!-- ======================================================== -->
  <!-- DELTA SNAPSHOT WRITE PATH -->
  <!-- ======================================================== -->
  <rect x="60" y="1220" width="1220" height="100" rx="10" fill="url(#fixedGrad)" stroke="#22c55e" stroke-width="2" filter="url(#greenGlow)"/>
  <text x="80" y="1245" fill="#22c55e" font-size="14" font-weight="bold">Write Path — Dirty Label Delta Snapshot [IMPLEMENTED]</text>
  <text x="80" y="1267" fill="#e2e8f0" font-size="11">1. App -> PDS_RPC.createRecord -> Pipeline.send() (durable) -> YATA_RPC.mergeRecord() -> dirty_labels.insert(label)</text>
  <text x="80" y="1287" fill="#e2e8f0" font-size="11">2. Snapshot cron: dirty_labels.drain() -> csr_to_fragment_selective(dirty_set) -> selective R2 PUT (dirty blobs only)</text>
  <text x="80" y="1307" fill="#4ade80" font-size="11">3. is_infra_blob (always) | is_dirty_vertex_blob (dirty only) | is_edge_or_topology_blob (if edges changed)</text>

  <!-- ======================================================== -->
  <!-- SHANNON BEFORE vs AFTER -->
  <!-- ======================================================== -->
  <text x="800" y="1370" text-anchor="middle" fill="#f8fafc" font-size="18" font-weight="bold">Shannon Information-Theoretic Analysis — Before vs After</text>
  <line x1="40" y1="1380" x2="1560" y2="1380" stroke="#334155" stroke-width="1"/>

  <!-- BEFORE -->
  <rect x="60" y="1395" width="710" height="260" rx="10" fill="#1e293b" stroke="#ef4444" stroke-width="1.5" stroke-opacity="0.4"/>
  <text x="80" y="1420" fill="#ef4444" font-size="14" font-weight="bold">BEFORE (Full Compaction)</text>
  <line x1="78" y1="1416" x2="310" y2="1416" stroke="#ef4444" stroke-width="1.5" stroke-opacity="0.4"/>

  <rect x="80" y="1435" width="670" height="45" rx="6" fill="#1a0505" stroke="#7f1d1d" stroke-width="1" stroke-opacity="0.4"/>
  <text x="95" y="1453" fill="#fca5a5" font-size="11" font-opacity="0.6">P2: trigger_snapshot() serialized ALL labels, uploaded ALL blobs to R2</text>
  <text x="95" y="1470" fill="#94a3b8" font-size="9" font-opacity="0.6">O(N) network per snapshot. eta = 0.01% (N=1M, delta=100)</text>

  <rect x="80" y="1488" width="670" height="45" rx="6" fill="#1a0505" stroke="#7f1d1d" stroke-width="1" stroke-opacity="0.4"/>
  <text x="95" y="1506" fill="#fca5a5" font-size="11" font-opacity="0.6">P9: csr_to_fragment() extracted properties for ALL vertex labels</text>
  <text x="95" y="1523" fill="#94a3b8" font-size="9" font-opacity="0.6">O(V_total x P) CPU per snapshot even when only 1 label was dirty</text>

  <rect x="80" y="1541" width="670" height="35" rx="6" fill="#1a0a00" stroke="#78350f" stroke-width="1" stroke-opacity="0.3"/>
  <text x="95" y="1564" fill="#fcd34d" font-size="10" font-opacity="0.5">P4: Cold start full page-in (already mitigated: label-selective + topology-only)</text>

  <rect x="80" y="1584" width="670" height="35" rx="6" fill="#001a20" stroke="#155e75" stroke-width="1" stroke-opacity="0.3"/>
  <text x="95" y="1607" fill="#67e8f9" font-size="10" font-opacity="0.5">P5: Coordinator 2ms fan-out overhead (mitigated: adaptive sqrt(N))</text>

  <rect x="80" y="1627" width="670" height="20" rx="6" fill="#0f0520" stroke="#581c87" stroke-width="1" stroke-opacity="0.2"/>
  <text x="95" y="1642" fill="#d8b4fe" font-size="9" font-opacity="0.4">P6: Dual persistence — Pipeline WAL + R2 snapshot (by design, cold start &lt;5s)</text>

  <!-- AFTER -->
  <rect x="810" y="1395" width="470" height="260" rx="10" fill="#1e293b" stroke="#22c55e" stroke-width="2" filter="url(#greenGlow)"/>
  <text x="830" y="1420" fill="#22c55e" font-size="14" font-weight="bold">AFTER (Delta Snapshot)</text>

  <rect x="830" y="1435" width="430" height="55" rx="6" fill="#052e16" stroke="#166534" stroke-width="1"/>
  <text x="845" y="1453" fill="#4ade80" font-size="11" font-weight="bold">P2 FIXED: selective R2 PUT</text>
  <text x="845" y="1470" fill="#86efac" font-size="10">is_dirty_vertex_blob(): vertex_table_{i}* only</text>
  <text x="845" y="1483" fill="#86efac" font-size="10">is_infra_blob(): schema + ivnums always</text>

  <rect x="830" y="1498" width="430" height="42" rx="6" fill="#052e16" stroke="#166534" stroke-width="1"/>
  <text x="845" y="1516" fill="#4ade80" font-size="11" font-weight="bold">P9 FIXED: csr_to_fragment_selective()</text>
  <text x="845" y="1533" fill="#86efac" font-size="10">Clean labels = empty table (skip O(V x P))</text>

  <rect x="830" y="1548" width="430" height="30" rx="6" fill="#1e293b" stroke="#334155" stroke-width="1"/>
  <text x="845" y="1568" fill="#94a3b8" font-size="10">P4: Already PRODUCTION (selective page-in)</text>

  <rect x="830" y="1586" width="430" height="30" rx="6" fill="#1e293b" stroke="#334155" stroke-width="1"/>
  <text x="845" y="1606" fill="#94a3b8" font-size="10">P5: Mitigated (adaptive sqrt(N) fan-out)</text>

  <rect x="830" y="1624" width="430" height="25" rx="6" fill="#1e293b" stroke="#334155" stroke-width="1"/>
  <text x="845" y="1642" fill="#94a3b8" font-size="9">P6: By design (cold start &lt;5s guarantee)</text>

  <!-- ======================================================== -->
  <!-- EFFICIENCY TABLE -->
  <!-- ======================================================== -->
  <text x="800" y="1710" text-anchor="middle" fill="#f8fafc" font-size="16" font-weight="bold">Shannon Efficiency (N=1M vertices, delta=100 per snapshot)</text>

  <rect x="100" y="1725" width="1400" height="28" rx="4" fill="#334155"/>
  <text x="140" y="1744" fill="#e2e8f0" font-size="11" font-weight="bold">Dimension</text>
  <text x="360" y="1744" fill="#e2e8f0" font-size="11" font-weight="bold">Before</text>
  <text x="680" y="1744" fill="#e2e8f0" font-size="11" font-weight="bold">After</text>
  <text x="1020" y="1744" fill="#e2e8f0" font-size="11" font-weight="bold">Improvement</text>
  <text x="1340" y="1744" fill="#e2e8f0" font-size="11" font-weight="bold">Status</text>

  <rect x="100" y="1756" width="1400" height="28" rx="0" fill="#1e293b"/>
  <text x="140" y="1775" fill="#fcd34d" font-size="11" font-weight="bold">NETWORK (R2 PUT)</text>
  <text x="360" y="1775" fill="#f87171" font-size="10">O(N) all blobs per snapshot</text>
  <text x="680" y="1775" fill="#4ade80" font-size="10">O(delta) dirty vertex blobs only</text>
  <text x="1020" y="1775" fill="#22c55e" font-size="11" font-weight="bold">eta: 0.01% -> 85%</text>
  <text x="1340" y="1775" fill="#22c55e" font-size="11" font-weight="bold">FIXED</text>

  <rect x="100" y="1786" width="1400" height="28" rx="0" fill="#1a2332"/>
  <text x="140" y="1805" fill="#67e8f9" font-size="11" font-weight="bold">CPU (serialize)</text>
  <text x="360" y="1805" fill="#f87171" font-size="10">O(V x P) all labels property scan</text>
  <text x="680" y="1805" fill="#4ade80" font-size="10">O(V_dirty x P) dirty labels only</text>
  <text x="1020" y="1805" fill="#22c55e" font-size="11" font-weight="bold">O(N) -> O(delta)</text>
  <text x="1340" y="1805" fill="#22c55e" font-size="11" font-weight="bold">FIXED</text>

  <rect x="100" y="1816" width="1400" height="28" rx="0" fill="#1e293b"/>
  <text x="140" y="1835" fill="#d8b4fe" font-size="11" font-weight="bold">DISK (cache write)</text>
  <text x="360" y="1835" fill="#f87171" font-size="10">ALL blobs written to disk</text>
  <text x="680" y="1835" fill="#4ade80" font-size="10">Dirty blobs only written</text>
  <text x="1020" y="1835" fill="#22c55e" font-size="11" font-weight="bold">Same selective logic</text>
  <text x="1340" y="1835" fill="#22c55e" font-size="11" font-weight="bold">FIXED</text>

  <rect x="100" y="1846" width="1400" height="28" rx="0" fill="#1a2332"/>
  <text x="140" y="1865" fill="#fca5a5" font-size="11">MEMORY (4GB)</text>
  <text x="360" y="1865" fill="#94a3b8" font-size="10">CSR primary store (~20M nodes)</text>
  <text x="680" y="1865" fill="#94a3b8" font-size="10">Unchanged (CSR = the design)</text>
  <text x="1020" y="1865" fill="#94a3b8" font-size="10">QueryCache bounded (256/30s)</text>
  <text x="1340" y="1865" fill="#94a3b8" font-size="10">by design</text>

  <rect x="100" y="1876" width="1400" height="28" rx="0" fill="#1e293b"/>
  <text x="140" y="1895" fill="#94a3b8" font-size="11">PERSISTENCE</text>
  <text x="360" y="1895" fill="#94a3b8" font-size="10">Pipeline WAL + R2 snapshot</text>
  <text x="680" y="1895" fill="#94a3b8" font-size="10">Delta PUT reduces R2 I/O cost</text>
  <text x="1020" y="1895" fill="#94a3b8" font-size="10">cold start &lt;5s requires checkpoint</text>
  <text x="1340" y="1895" fill="#94a3b8" font-size="10">by design</text>

  <!-- ======================================================== -->
  <!-- EXTERNAL DEPS -->
  <!-- ======================================================== -->
  <rect x="1160" y="125" width="380" height="480" rx="10" fill="#1e293b" stroke="#334155" stroke-width="1"/>
  <text x="1180" y="150" fill="#94a3b8" font-size="13" font-weight="bold">External Dependencies</text>
  <text x="1180" y="175" fill="#64748b" font-size="10" font-weight="bold">Core</text>
  <text x="1180" y="192" fill="#94a3b8" font-size="10">arrow v53 (IPC, columnar)</text>
  <text x="1180" y="207" fill="#94a3b8" font-size="10">tokio (async runtime)</text>
  <text x="1180" y="222" fill="#94a3b8" font-size="10">serde + serde_json</text>
  <text x="1180" y="237" fill="#94a3b8" font-size="10">rkyv (zero-copy WAL)</text>
  <text x="1180" y="262" fill="#64748b" font-size="10" font-weight="bold">Crypto</text>
  <text x="1180" y="279" fill="#94a3b8" font-size="10">blake3, sha2 + hmac (SigV4), rustls</text>
  <text x="1180" y="304" fill="#64748b" font-size="10" font-weight="bold">HTTP / Server</text>
  <text x="1180" y="321" fill="#94a3b8" font-size="10">axum 0.7 + tower-http, ureq (sync S3)</text>
  <text x="1180" y="346" fill="#64748b" font-size="10" font-weight="bold">Storage</text>
  <text x="1180" y="363" fill="#94a3b8" font-size="10">memmap2, ciborium (CBOR)</text>
  <text x="1180" y="388" fill="#64748b" font-size="10" font-weight="bold">Observability</text>
  <text x="1180" y="405" fill="#94a3b8" font-size="10">metrics 0.24 + prometheus, tracing</text>
  <text x="1180" y="430" fill="#64748b" font-size="10" font-weight="bold">Misc</text>
  <text x="1180" y="447" fill="#94a3b8" font-size="10">indexmap, regex, uuid, rayon, rand</text>
  <text x="1180" y="462" fill="#94a3b8" font-size="10">thiserror, anyhow, once_cell, bytes</text>
  <text x="1180" y="487" fill="#ef4444" font-size="10" font-weight="bold">BANNED: reqwest, aws-lc-sys, openssl</text>

  <!-- Query pipeline -->
  <rect x="1160" y="625" width="380" height="240" rx="10" fill="#1e293b" stroke="#334155" stroke-width="1"/>
  <text x="1180" y="650" fill="#94a3b8" font-size="13" font-weight="bold">Query Execution Pipeline</text>
  <rect x="1195" y="665" width="160" height="24" rx="4" fill="#334155"/>
  <text x="1210" y="682" fill="#e2e8f0" font-size="10">Cypher string</text>
  <line x1="1275" y1="689" x2="1275" y2="700" stroke="#4b5563" stroke-width="1" marker-end="url(#arrow)"/>
  <rect x="1195" y="700" width="160" height="24" rx="4" fill="#334155"/>
  <text x="1210" y="717" fill="#e2e8f0" font-size="10">yata_cypher::parse()</text>
  <line x1="1275" y1="724" x2="1275" y2="735" stroke="#4b5563" stroke-width="1" marker-end="url(#arrow)"/>
  <rect x="1195" y="735" width="160" height="24" rx="4" fill="#334155"/>
  <text x="1210" y="752" fill="#e2e8f0" font-size="10">yata_gie::transpile()</text>
  <line x1="1275" y1="759" x2="1275" y2="770" stroke="#4b5563" stroke-width="1" marker-end="url(#arrow)"/>
  <rect x="1195" y="770" width="160" height="24" rx="4" fill="#334155"/>
  <text x="1210" y="787" fill="#e2e8f0" font-size="10">yata_gie::optimize()</text>
  <line x1="1275" y1="794" x2="1275" y2="805" stroke="#4b5563" stroke-width="1" marker-end="url(#arrow)"/>
  <rect x="1195" y="805" width="160" height="24" rx="4" fill="#334155"/>
  <text x="1210" y="822" fill="#e2e8f0" font-size="10">yata_gie::execute()</text>
  <line x1="1275" y1="829" x2="1275" y2="840" stroke="#4b5563" stroke-width="1" marker-end="url(#arrow)"/>
  <rect x="1195" y="840" width="160" height="24" rx="4" fill="#22c55e" fill-opacity="0.2" stroke="#22c55e" stroke-width="1"/>
  <text x="1210" y="857" fill="#22c55e" font-size="10">Vec&lt;Record&gt;</text>
  <text x="1375" y="682" fill="#64748b" font-size="9">regex lexing</text>
  <text x="1375" y="717" fill="#64748b" font-size="9">AST -> LogicalOp</text>
  <text x="1375" y="752" fill="#64748b" font-size="9">+ SecurityScope</text>
  <text x="1375" y="787" fill="#64748b" font-size="9">cost-based</text>
  <text x="1375" y="822" fill="#64748b" font-size="9">push-based stream</text>

  <!-- ======================================================== -->
  <!-- LEGEND -->
  <!-- ======================================================== -->
  <rect x="100" y="1930" width="1400" height="70" rx="8" fill="#1e293b" stroke="#334155" stroke-width="1"/>
  <text x="120" y="1955" fill="#e2e8f0" font-size="12" font-weight="bold">Legend</text>
  <rect x="200" y="1945" width="14" height="14" rx="2" fill="#22c55e" fill-opacity="0.4"/>
  <text x="220" y="1957" fill="#4ade80" font-size="10">FIXED (Shannon violation resolved)</text>
  <rect x="470" y="1945" width="14" height="14" rx="2" fill="#ef4444" fill-opacity="0.2"/>
  <text x="490" y="1957" fill="#fca5a5" font-size="10">WAS (previous violation)</text>
  <rect x="680" y="1945" width="14" height="14" rx="2" fill="#94a3b8" fill-opacity="0.2"/>
  <text x="700" y="1957" fill="#94a3b8" font-size="10">By design (intentional tradeoff)</text>
  <line x1="900" y1="1952" x2="945" y2="1952" stroke="#334155" stroke-width="1.5" marker-end="url(#arrow)"/>
  <text x="955" y="1956" fill="#94a3b8" font-size="10">dependency</text>
  <rect x="1060" y="1945" width="50" height="14" rx="4" fill="none" stroke="#22c55e" stroke-width="2"/>
  <text x="1120" y="1957" fill="#22c55e" font-size="10">changed crate</text>
  <rect x="1270" y="1945" width="50" height="14" rx="4" fill="none" stroke="#60a5fa" stroke-width="2"/>
  <text x="1330" y="1957" fill="#60a5fa" font-size="10">entry point</text>
  <text x="120" y="1985" fill="#475569" font-size="10">12 crates | ~22,000 LOC | 822 tests pass | Edition 2024 | Apache-2.0 | cargo zigbuild x86_64-unknown-linux-gnu</text>
</svg>